<?xml version="1.0" standalone="no"?>
<!DOCTYPE svg PUBLIC "-//W3C//DTD SVG 20010904//EN"
 "http://www.w3.org/TR/2001/REC-SVG-20010904/DTD/svg10.dtd">
<svg version="1.0" xmlns="http://www.w3.org/2000/svg"
 width="256.000000pt" height="256.000000pt" viewBox="0 0 256.000000 256.000000"
 preserveAspectRatio="xMidYMid meet">
<metadata>
Created by potrace 1.14, written by Peter Selinger 2001-2017
</metadata>
<g transform="translate(0.000000,256.000000) scale(0.100000,-0.100000)"
fill="#000000" stroke="none">
<path d="M1458 2286 c-127 -49 -199 -155 -194 -287 2 -69 29 -140 70 -181 l24
-23 -90 -137 -91 -136 -38 13 c-91 33 -214 3 -291 -69 -105 -99 -113 -291 -17
-394 11 -13 19 -28 17 -35 -2 -7 -41 -69 -87 -139 l-84 -126 -38 13 c-20 8
-66 13 -101 11 -109 -3 -200 -64 -251 -166 -32 -65 -31 -177 2 -243 52 -107
141 -162 261 -162 120 1 210 57 263 165 44 90 24 236 -43 308 -11 11 -20 26
-20 31 0 6 39 69 86 139 l87 129 45 -13 c57 -18 107 -18 164 0 l46 13 90 -135
90 -136 -24 -25 c-72 -77 -92 -218 -46 -312 108 -221 416 -222 523 -2 27 56
34 145 15 206 -44 146 -204 236 -349 195 l-56 -15 -89 135 -90 135 25 26 c90
93 92 284 4 378 -12 12 -21 27 -21 32 0 6 39 69 86 140 l87 129 38 -13 c44
-16 164 -14 195 3 19 10 28 0 107 -119 88 -130 98 -155 73 -165 -7 -3 -26 -31
-42 -62 -39 -77 -41 -182 -5 -255 29 -60 79 -109 140 -139 61 -31 175 -31 241
-1 58 26 117 85 144 143 30 65 29 179 -2 241 -63 129 -219 199 -345 156 l-45
-15 -90 136 -90 136 34 40 c43 51 68 131 61 200 -10 100 -60 178 -150 230 -55
33 -172 44 -229 22z"/>
</g>
</svg>
